<svg xmlns="http://www.w3.org/2000/svg" width="21" height="12" viewBox="0 0 21 12">
  <metadata><?xpacket begin="﻿" id="W5M0MpCehiHzreSzNTczkc9d"?>
<x:xmpmeta xmlns:x="adobe:ns:meta/" x:xmptk="Adobe XMP Core 5.6-c138 79.159824, 2016/09/14-01:09:01        ">
   <rdf:RDF xmlns:rdf="http://www.w3.org/1999/02/22-rdf-syntax-ns#">
      <rdf:Description rdf:about=""/>
   </rdf:RDF>
</x:xmpmeta>
                                                                                                    
                                                                                                    
                                                                                                    
                                                                                                    
                                                                                                    
                                                                                                    
                                                                                                    
                                                                                                    
                                                                                                    
                                                                                                    
                                                                                                    
                                                                                                    
                                                                                                    
                                                                                                    
                                                                                                    
                                                                                                    
                                                                                                    
                                                                                                    
                                                                                                    
                                                                                                    
                           
<?xpacket end="w"?></metadata>
<defs>
    <style>
      .cls-1 {
        fill: #efeff3;
        fill-rule: evenodd;
      }
    </style>
  </defs>
  <path class="cls-1" d="M1440.89,70.838c-0.03-.055-0.05-0.1-0.07-0.136a11.025,11.025,0,0,0-2.09-2.422l-0.02-.022-0.01-.01-0.02-.011h-0.01c-0.46-.446-0.76-0.744-0.88-0.9a0.847,0.847,0,0,1-.16-0.887,8.492,8.492,0,0,1,.99-1.435c0.3-.388.53-0.7,0.71-0.932,1.26-1.68,1.81-2.753,1.64-3.22l-0.07-.11a0.6,0.6,0,0,0-.33-0.181,1.743,1.743,0,0,0-.7-0.027l-3.15.022a0.42,0.42,0,0,0-.22.005c-0.1.022-.14,0.033-0.14,0.033l-0.06.028-0.04.033a0.387,0.387,0,0,0-.12.115,0.618,0.618,0,0,0-.11.192,17.3,17.3,0,0,1-1.17,2.465q-0.4.679-.75,1.178a5.441,5.441,0,0,1-.56.733,4.016,4.016,0,0,1-.42.379,0.393,0.393,0,0,1-.28.12c-0.07-.014-0.13-0.029-0.19-0.043a0.717,0.717,0,0,1-.24-0.268,1.031,1.031,0,0,1-.13-0.427,4.187,4.187,0,0,1-.04-0.444c0-.125,0-0.3.01-0.526s0.01-.38.01-0.46c0-.277,0-0.579.01-0.9s0.02-.582.03-0.772,0.01-.39.01-0.6a2.211,2.211,0,0,0-.04-0.5,1.469,1.469,0,0,0-.11-0.351,0.623,0.623,0,0,0-.22-0.262,1.381,1.381,0,0,0-.37-0.148A7.343,7.343,0,0,0,1430.1,60a7.178,7.178,0,0,0-2.61.264,1.632,1.632,0,0,0-.42.328c-0.13.161-.14,0.249-0.05,0.263a1.329,1.329,0,0,1,.93.471l0.06,0.131a1.684,1.684,0,0,1,.16.5,5.972,5.972,0,0,1,.1.8,10.346,10.346,0,0,1,0,1.369c-0.04.381-.07,0.676-0.11,0.888a1.567,1.567,0,0,1-.15.514,1.061,1.061,0,0,1-.13.241,0.23,0.23,0,0,1-.05.055,0.834,0.834,0,0,1-.3.055,0.711,0.711,0,0,1-.37-0.153,2.609,2.609,0,0,1-.45-0.423,4.855,4.855,0,0,1-.53-0.75,11.977,11.977,0,0,1-.61-1.14l-0.18-.318q-0.165-.307-0.45-0.893c-0.19-.391-0.35-0.769-0.5-1.133a0.773,0.773,0,0,0-.26-0.351l-0.06-.033a0.6,0.6,0,0,0-.17-0.093,1.227,1.227,0,0,0-.25-0.071l-3,.021a0.748,0.748,0,0,0-.62.209l-0.05.066A0.381,0.381,0,0,0,1420,61a0.762,0.762,0,0,0,.07.3c0.43,1.03.91,2.023,1.42,2.98s0.96,1.727,1.34,2.311,0.77,1.136,1.16,1.654,0.66,0.85.78,1,0.23,0.256.3,0.329l0.28,0.262a6.01,6.01,0,0,0,.77.63c0.34,0.245.71,0.485,1.12,0.723a6.205,6.205,0,0,0,1.44.58,4.96,4.96,0,0,0,1.6.181h1.26a0.852,0.852,0,0,0,.57-0.24l0.05-.056a0.881,0.881,0,0,0,.08-0.2,0.963,0.963,0,0,0,.04-0.3,3.247,3.247,0,0,1,.07-0.85,2.042,2.042,0,0,1,.19-0.569,1.113,1.113,0,0,1,.23-0.323,0.9,0.9,0,0,1,.19-0.158,0.438,0.438,0,0,1,.08-0.038,0.7,0.7,0,0,1,.62.169,3.63,3.63,0,0,1,.67.635q0.315,0.379.75,0.85a5.05,5.05,0,0,0,.76.7l0.22,0.131a2.851,2.851,0,0,0,.57.241,1.209,1.209,0,0,0,.61.054l2.8-.044a1.3,1.3,0,0,0,.65-0.136,0.55,0.55,0,0,0,.27-0.3,0.781,0.781,0,0,0,0-.373A1.47,1.47,0,0,0,1440.89,70.838Z" transform="translate(-1420 -60)"/>
</svg>
