<svg xmlns="http://www.w3.org/2000/svg" width="17" height="12" viewBox="0 0 17 12">
  <metadata><?xpacket begin="﻿" id="W5M0MpCehiHzreSzNTczkc9d"?>
<x:xmpmeta xmlns:x="adobe:ns:meta/" x:xmptk="Adobe XMP Core 5.6-c138 79.159824, 2016/09/14-01:09:01        ">
   <rdf:RDF xmlns:rdf="http://www.w3.org/1999/02/22-rdf-syntax-ns#">
      <rdf:Description rdf:about=""/>
   </rdf:RDF>
</x:xmpmeta>
                                                                                                    
                                                                                                    
                                                                                                    
                                                                                                    
                                                                                                    
                                                                                                    
                                                                                                    
                                                                                                    
                                                                                                    
                                                                                                    
                                                                                                    
                                                                                                    
                                                                                                    
                                                                                                    
                                                                                                    
                                                                                                    
                                                                                                    
                                                                                                    
                                                                                                    
                                                                                                    
                           
<?xpacket end="w"?></metadata>
<defs>
    <style>
      .cls-1 {
        fill: #efeff3;
        fill-rule: evenodd;
      }
    </style>
  </defs>
  <path class="cls-1" d="M1505.7,62.927a2.163,2.163,0,0,0-1.84-1.692,85.124,85.124,0,0,0-12.73,0,2.163,2.163,0,0,0-1.84,1.692,18.436,18.436,0,0,0-.3,4.07,18.428,18.428,0,0,0,.3,4.069,2.14,2.14,0,0,0,1.83,1.692,56.5,56.5,0,0,0,6.37.239,56.238,56.238,0,0,0,6.36-.239,2.163,2.163,0,0,0,1.84-1.692,18.428,18.428,0,0,0,.3-4.069A19.057,19.057,0,0,0,1505.7,62.927Zm-10.4,6.742V63.975l5.4,2.856C1498.89,67.781,1497.1,68.721,1495.3,69.669Z" transform="translate(-1489 -61)"/>
</svg>
