<svg xmlns="http://www.w3.org/2000/svg" width="10" height="16" viewBox="0 0 10 16">
  <metadata><?xpacket begin="﻿" id="W5M0MpCehiHzreSzNTczkc9d"?>
<x:xmpmeta xmlns:x="adobe:ns:meta/" x:xmptk="Adobe XMP Core 5.6-c138 79.159824, 2016/09/14-01:09:01        ">
   <rdf:RDF xmlns:rdf="http://www.w3.org/1999/02/22-rdf-syntax-ns#">
      <rdf:Description rdf:about=""/>
   </rdf:RDF>
</x:xmpmeta>
                                                                                                    
                                                                                                    
                                                                                                    
                                                                                                    
                                                                                                    
                                                                                                    
                                                                                                    
                                                                                                    
                                                                                                    
                                                                                                    
                                                                                                    
                                                                                                    
                                                                                                    
                                                                                                    
                                                                                                    
                                                                                                    
                                                                                                    
                                                                                                    
                                                                                                    
                                                                                                    
                           
<?xpacket end="w"?></metadata>
<defs>
    <style>
      .cls-1 {
        fill: #efeff3;
        fill-rule: evenodd;
      }
    </style>
  </defs>
  <path class="cls-1" d="M1536.74,68.689a5.148,5.148,0,0,1-1.83,1.133,8.852,8.852,0,0,1-2.07.446c0.11,0.111.16,0.166,0.23,0.23,0.96,0.926,1.92,1.847,2.88,2.776a0.894,0.894,0,0,1,.21,1.077,1.154,1.154,0,0,1-1.07.638,1.054,1.054,0,0,1-.67-0.331c-0.72-.7-1.46-1.386-2.17-2.1-0.21-.207-0.31-0.169-0.49.012-0.73.72-1.47,1.429-2.21,2.134a0.959,0.959,0,0,1-1.12.193,1.078,1.078,0,0,1-.66-1,1.04,1.04,0,0,1,.35-0.672q1.425-1.365,2.85-2.734c0.06-.061.12-0.125,0.21-0.219a6.612,6.612,0,0,1-3.45-1.183,3.575,3.575,0,0,1-.37-0.287,0.909,0.909,0,0,1-.13-1.338,1,1,0,0,1,1.3-.282,2.118,2.118,0,0,1,.29.163,5.865,5.865,0,0,0,6.28.055,1.684,1.684,0,0,1,.61-0.3,0.982,0.982,0,0,1,1.1.421A0.867,0.867,0,0,1,1536.74,68.689Zm-4.77-1.59a4.053,4.053,0,1,1,4.24-4A4.128,4.128,0,0,1,1531.97,67.1Zm0.03-6.03a1.983,1.983,0,1,0,2.06,1.978A2.013,2.013,0,0,0,1532,61.068Z" transform="translate(-1527 -59)"/>
</svg>
