<svg xmlns="http://www.w3.org/2000/svg" width="16" height="16" viewBox="0 0 16 16">
  <metadata><?xpacket begin="﻿" id="W5M0MpCehiHzreSzNTczkc9d"?>
<x:xmpmeta xmlns:x="adobe:ns:meta/" x:xmptk="Adobe XMP Core 5.6-c138 79.159824, 2016/09/14-01:09:01        ">
   <rdf:RDF xmlns:rdf="http://www.w3.org/1999/02/22-rdf-syntax-ns#">
      <rdf:Description rdf:about=""/>
   </rdf:RDF>
</x:xmpmeta>
                                                                                                    
                                                                                                    
                                                                                                    
                                                                                                    
                                                                                                    
                                                                                                    
                                                                                                    
                                                                                                    
                                                                                                    
                                                                                                    
                                                                                                    
                                                                                                    
                                                                                                    
                                                                                                    
                                                                                                    
                                                                                                    
                                                                                                    
                                                                                                    
                                                                                                    
                                                                                                    
                           
<?xpacket end="w"?></metadata>
<defs>
    <style>
      .cls-1 {
        fill: #efeff3;
        fill-rule: evenodd;
      }
    </style>
  </defs>
  <path class="cls-1" d="M1472.4,59.6a2,2,0,0,0-1.45-.6h-11.9A2.055,2.055,0,0,0,1457,61.05v11.9A2.055,2.055,0,0,0,1459.05,75h11.9a2.055,2.055,0,0,0,2.05-2.052V61.05A1.982,1.982,0,0,0,1472.4,59.6Zm-9.66,5.162a3.294,3.294,0,0,1,4.55,0,3.053,3.053,0,0,1,0,4.407,3.294,3.294,0,0,1-4.55,0A3.053,3.053,0,0,1,1462.74,64.764Zm8.45,7.756a0.591,0.591,0,0,1-.19.453,0.605,0.605,0,0,1-.45.182h-11.13a0.628,0.628,0,0,1-.46-0.182,0.619,0.619,0,0,1-.18-0.453V65.769h1.47a4.458,4.458,0,0,0-.21,1.365,4.583,4.583,0,0,0,1.46,3.412,4.858,4.858,0,0,0,3.51,1.412,5,5,0,0,0,2.5-.646,4.853,4.853,0,0,0,1.81-1.755,4.571,4.571,0,0,0,.67-2.422,4.458,4.458,0,0,0-.21-1.365h1.41v6.751h0Zm0-9.3a0.714,0.714,0,0,1-.72.719h-1.81a0.714,0.714,0,0,1-.72-0.719V61.5a0.7,0.7,0,0,1,.21-0.506,0.69,0.69,0,0,1,.51-0.213h1.81a0.69,0.69,0,0,1,.51.213,0.7,0.7,0,0,1,.21.506v1.719Z" transform="translate(-1457 -59)"/>
</svg>
