<svg xmlns="http://www.w3.org/2000/svg" xmlns:xlink="http://www.w3.org/1999/xlink" width="25" height="26" viewBox="0 0 25 26">
  <metadata><?xpacket begin="﻿" id="W5M0MpCehiHzreSzNTczkc9d"?>
<x:xmpmeta xmlns:x="adobe:ns:meta/" x:xmptk="Adobe XMP Core 5.6-c138 79.159824, 2016/09/14-01:09:01        ">
   <rdf:RDF xmlns:rdf="http://www.w3.org/1999/02/22-rdf-syntax-ns#">
      <rdf:Description rdf:about=""/>
   </rdf:RDF>
</x:xmpmeta>
                                                                                                    
                                                                                                    
                                                                                                    
                                                                                                    
                                                                                                    
                                                                                                    
                                                                                                    
                                                                                                    
                                                                                                    
                                                                                                    
                                                                                                    
                                                                                                    
                                                                                                    
                                                                                                    
                                                                                                    
                                                                                                    
                                                                                                    
                                                                                                    
                                                                                                    
                                                                                                    
                           
<?xpacket end="w"?></metadata>
<defs>
    <style>
      .cls-1 {
        fill: #fff;
        fill-rule: evenodd;
        filter: url(#filter);
      }
    </style>
    <filter id="filter" x="1366" y="152" width="25" height="26" filterUnits="userSpaceOnUse">
      <feOffset result="offset" dy="2" in="SourceAlpha"/>
      <feGaussianBlur result="blur" stdDeviation="1"/>
      <feFlood result="flood" flood-opacity="0.2"/>
      <feComposite result="composite" operator="in" in2="blur"/>
      <feBlend result="blend" in="SourceGraphic"/>
    </filter>
  </defs>
  <path id="Phone_icon" data-name="Phone icon" class="cls-1" d="M1387.31,162.611a10.879,10.879,0,0,0-9.2-8.913l0.24-1.7A12.6,12.6,0,0,1,1389,162.322Zm-4.88-4.07a7.531,7.531,0,0,1,2.11,4.074l-1.69.288a5.863,5.863,0,0,0-4.96-4.811l0.24-1.7A7.505,7.505,0,0,1,1382.43,158.541ZM1374.18,164a16.858,16.858,0,0,0,4.08,3.708c0.33,0.21.71,0.366,1.06,0.559a0.324,0.324,0,0,0,.45-0.082c0.54-.551,1.08-1.09,1.63-1.631a1.542,1.542,0,0,1,2.33,0q1.3,1.305,2.61,2.614a1.557,1.557,0,0,1,0,2.371c-0.5.5-1.03,0.976-1.49,1.5a2.94,2.94,0,0,1-2.52.956,10.4,10.4,0,0,1-3.99-1.162,21.777,21.777,0,0,1-7.22-5.645,19.874,19.874,0,0,1-3.52-5.864,7.591,7.591,0,0,1-.58-3.264,2.614,2.614,0,0,1,.83-1.79c0.56-.531,1.08-1.085,1.63-1.626a1.552,1.552,0,0,1,2.33,0c0.45,0.435.88,0.879,1.32,1.319s0.85,0.852,1.28,1.282a1.544,1.544,0,0,1,0,2.384c-0.53.54-1.06,1.081-1.61,1.607a0.341,0.341,0,0,0-.08.431A9.651,9.651,0,0,0,1374.18,164Z" transform="translate(-1366 -152)"/>
</svg>
